<svg xmlns="http://www.w3.org/2000/svg" xmlns:xlink="http://www.w3.org/1999/xlink" viewBox="0 0 492.84 298.63"><defs><style>.e,.f{fill:none}.f,.g,.h,.i{stroke-miterlimit:10}.f,.g,.i{stroke-width:.42px}.f,.h,.i{stroke:#eddfd6}.h,.i,.j,.k{fill:#1d1d1b}.k,.l{opacity:.19}.g,.l{fill:#eddfd6}.g{stroke:#1d1d1b}.h{stroke-width:.42px}.m{clip-path:url(#d)}</style><clipPath id="d"><rect width="492.84" height="298.63" class="e"/></clipPath></defs><g id="b"><g id="c"><g class="m"><rect width="492.84" height="298.63" class="h"/></g><line x1="55.98" x2="120.29" y1="135.27" y2="135.27" class="h"/><line x1="193.45" x2="257.76" y1="93.3" y2="93.3" class="h"/><line x1="204.27" x2="268.59" y1="231.73" y2="231.73" class="h"/><line x1="62.51" x2="126.82" y1="149.31" y2="149.31" class="h"/><line x1="359.97" x2="424.28" y1="142.92" y2="142.92" class="h"/><line x1="34.74" x2="99.06" y1="177.92" y2="177.92" class="h"/><line x1="398.24" x2="462.56" y1="168.2" y2="168.2" class="h"/><g><line x1="143.95" x2="163.09" y1="163.92" y2="215.05" class="i"/><line x1="164.83" x2="142.21" y1="163.92" y2="213.62" class="i"/><line x1="180.06" x2="128.94" y1="179.2" y2="198.34" class="i"/><line x1="179.1" x2="129.41" y1="200.79" y2="178.18" class="i"/><line x1="173.12" x2="134.83" y1="208.94" y2="170.03" class="i"/><line x1="153.42" x2="153.62" y1="216.78" y2="162.19" class="i"/><line x1="134.79" x2="173.16" y1="208.18" y2="169.36" class="i"/><line x1="127.21" x2="181.8" y1="188.77" y2="189.82" class="i"/></g><g><line x1="323.03" x2="342.17" y1="162.55" y2="213.68" class="i"/><line x1="343.9" x2="321.29" y1="162.55" y2="212.24" class="i"/><line x1="359.14" x2="308.02" y1="177.82" y2="196.97" class="i"/><line x1="358.18" x2="308.49" y1="199.42" y2="176.81" class="i"/><line x1="352.2" x2="313.9" y1="207.57" y2="168.66" class="i"/><line x1="332.5" x2="332.7" y1="215.41" y2="160.82" class="i"/><line x1="313.86" x2="352.24" y1="206.81" y2="167.98" class="i"/><line x1="306.29" x2="360.87" y1="187.4" y2="188.45" class="i"/></g><g><path d="M347.91,109.49c-5.48-13.21-33.03-34.49-33.03-34.49l-6.74-4.21c-2.69,.11-2.12,4.43-2.01,7.12l4.86,29.34-12.2,.5h0c-.17-4.13-3.66-7.35-7.79-7.18l-33.38,1.36c-10.35,.42-18.4,9.16-17.98,19.51h0l-48.87,3.21c-2.57-7.91-13.59-10.29-13.59-10.29l-52.57-7.44,.37,8.97c4.19,21.41,33.72,15.95,33.72,15.95l1.91,5.48c65.76,10.23,41.01,73.98,41.01,73.98l82.76,3.75c-14.01-49.47,16.79-69.66,16.79-69.66l28.51,44.05,6.68-5.14-25.74-44.32,38.56-8.56-1.68-20.61,.44-1.33Z" class="g"/><circle cx="333.28" cy="188.62" r="15.85" class="g"/><path d="M331.46,144.15c-24.55,1-43.65,21.73-42.64,46.3,1,24.55,21.73,43.65,46.28,42.64,24.57-1,43.67-21.73,42.67-46.28-1-24.57-21.73-43.67-46.3-42.67Zm2.93,71.76c-15.07,.62-27.78-11.09-28.39-26.16-.62-15.07,11.09-27.8,26.16-28.42,15.07-.62,27.8,11.12,28.42,26.19,.62,15.07-11.12,27.78-26.19,28.39Z" class="i"/><polygon points="171.71 139.78 150.68 189.28 158.48 191.73 179.95 142.84 171.71 139.78" class="g"/><circle cx="154.5" cy="189.12" r="15.85" class="g"/><path d="M152.67,144.65c-24.55,1-43.65,21.73-42.64,46.3,1,24.55,21.73,43.65,46.28,42.64,24.57-1,43.67-21.73,42.67-46.28-1-24.57-21.73-43.67-46.3-42.67Zm2.93,71.76c-15.07,.62-27.78-11.09-28.39-26.16-.62-15.07,11.09-27.8,26.16-28.42,15.07-.62,27.8,11.12,28.42,26.19,.62,15.07-11.12,27.78-26.19,28.39Z" class="i"/><line x1="203.68" x2="282.72" y1="204.47" y2="208.42" class="i"/><path d="M239.64,121.44v10.92h34.52c13.6,0,24.62-11.02,24.62-24.62h0" class="g"/></g><path d="M338.78,126.87l4.6,5.57c.61,.74,1.55,1.1,2.5,.97l4.71-.66c1.53-.21,2.58-1.65,2.33-3.17h0c-.14-.84-.67-1.57-1.42-1.97l-9.3-4.91c-2.65-1.4-5.31,1.86-3.4,4.17Z" class="i"/><path d="M348.72,107.47c0,.32-.06,.63-.19,.93-.56,1.28-2.12,1.78-3.32,1.07l-6.2-3.7-34.25-20.46c-.64-.39-1.06-1.05-1.13-1.79l-1.22-13.7-.42-4.72c-.19-2.17,2.44-3.39,3.97-1.84l1.91,1.93,18.6,18.82,8.37,8.47,7.74,7.83,5.47,5.53c.44,.44,.67,1.03,.67,1.63Z" class="i"/><path d="M301.16,145.39l-35.46,9.86c-22.33,6.21-37.79,26.55-37.79,49.73v7.52" class="g"/><line x1="190.77" x2="179.95" y1="124.65" y2="126.19" class="g"/><path d="M257.76,216.84v-6.77c0-12.33,9.99-22.32,22.32-22.32h4.8v33.44l-27.11-4.35Z" class="j"/><path d="M134.35,63.37s-87.9,117.17-8.41,74.45c79.49-42.72,103.2-63.31,108.05-22.84,4.85,40.47-34.53,97.52-5.63,82.33,28.9-15.19,51.83-24.78,52.63-24.19,15.8,11.77-48.21,65.85-48.21,65.85l-68.24,1.14-16.22-87.47s-78.13-8.3-86.84-4.99c-47.75,18.13,39.08-50.48,39.08-50.48l33.8-33.8Z" class="k"/><path d="M342.58,100.31c-1.21,1.95-2.45,3.82-3.57,5.46l-34.25-20.46c-.64-.39-1.06-1.05-1.13-1.79l-1.22-13.7c1.99-1.74,3.81-3.29,5.46-4.63l18.6,18.82c-.83,9.93-2.49,17.52,3.39,12.57,1.73-1.46,3.4-2.83,4.98-4.1l7.74,7.83Z" class="l"/><path d="M155.88,223.24c-18.84,.77-34.73-13.87-35.5-32.71-.77-18.84,13.87-34.76,32.71-35.53,18.84-.77,34.76,13.9,35.53,32.74,.77,18.84-13.9,34.73-32.74,35.5Z" class="f"/><path d="M334.96,223.24c-18.84,.77-34.73-13.87-35.5-32.71-.77-18.84,13.87-34.76,32.71-35.53,18.84-.77,34.76,13.9,35.53,32.74,.77,18.84-13.9,34.73-32.74,35.5Z" class="f"/></g></g></svg>