<svg xmlns="http://www.w3.org/2000/svg" xmlns:xlink="http://www.w3.org/1999/xlink" id="Layer_1" x="0" y="0" version="1.1" viewBox="0 0 134.9 134.5" xml:space="preserve" style="enable-background:new 0 0 134.9 134.5"><style type="text/css">.st0{fill:#1d1d1b}.st1{fill:#eddfd6}.st2{font-family:&apos;Helvetica&apos;}.st3{font-size:11.07px}.st4{font-family:&apos;Helvetica-Bold&apos;}.st5{font-size:92px}.st6{enable-background:new}.st7{fill:none;stroke:#1d1d1b;stroke-width:.42;stroke-miterlimit:10}</style><g><path d="M0.4,0.2h134c0.1,0,0.2,0.1,0.2,0.2v134c0,0.1-0.1,0.2-0.2,0.2H0.4c-0.1,0-0.2-0.1-0.2-0.2V0.4 C0.2,0.3,0.3,0.2,0.4,0.2z" class="st0"/><path d="M134.5,0.4v134H0.4V0.4H134.5 M134.5,0H0.4C0.2,0,0,0.2,0,0.4v134c0,0.2,0.2,0.4,0.4,0.4h134 c0.2,0,0.4-0.2,0.4-0.4V0.4C134.9,0.2,134.7,0,134.5,0L134.5,0z" class="st1"/></g><rect width="21.1" height="21.1" x=".4" y=".4" class="st1"/><text class="st0 st2 st3" transform="matrix(1 0 0 1 5.12 15.21)">02</text><text class="st1 st4 st5" transform="matrix(1 0 0 1 15.17 101.89)">L1</text><g class="st6"><path d="M22.2,35.7H36V90h33.1v11.9H22.2V35.7z" class="st7"/><path d="M77.7,57v-8.7c4-0.2,6.9-0.4,8.5-0.8c2.6-0.6,4.7-1.7,6.3-3.4c1.1-1.2,1.9-2.7,2.5-4.7c0.3-1.2,0.5-2,0.5-2.6 h10.7v65.1H93.1V57H77.7z" class="st7"/></g></svg>