<svg xmlns="http://www.w3.org/2000/svg" viewBox="0 0 134.89 134.89"><defs><style>.d,.e,.f,.g{fill:#eddfd6}.d,.h{stroke-width:.53px}.d,.f,.g,.h{stroke-miterlimit:10}.d,.f,.g{stroke:#1d1d1b}.h,.i,.j{fill:#1d1d1b}.h{stroke:#eddfd6}.f{stroke-width:.5px}.g{stroke-width:.42px}.j{font-family:Helvetica,Helvetica;font-size:11.07px}</style></defs><g id="b"><g id="c"><g><g><rect width="134.46" height="134.46" x=".21" y=".21" class="i" rx=".21" ry=".21"/><path d="M134.46,.42V134.46H.42V.42H134.46m0-.42H.42c-.23,0-.42,.19-.42,.42V134.46c0,.23,.19,.42,.42,.42H134.46c.23,0,.42-.19,.42-.42V.42c0-.23-.19-.42-.42-.42h0Z" class="e"/></g><rect width="21.13" height="21.13" x=".42" y=".42" class="e"/><text class="j" transform="translate(4.12 15.21)"><tspan x="0" y="0">16</tspan></text><g><polygon points="70.23 48.87 58.41 68.64 70.23 63.53 82.23 68.64 70.23 48.87" class="i"/><polygon points="59.24 70.74 70.26 66.21 81.4 70.95 70.44 77.34 59.24 70.74" class="i"/><polygon points="58.53 73.15 70.44 89.92 82.35 73.31 70.44 80.23 58.53 73.15" class="i"/></g></g><path d="M113.4,54.78c-5.23,0-9.97,2.12-13.4,5.55-3.43,3.43-5.55,8.17-5.55,13.4,0-5.23-2.12-9.97-5.55-13.4-3.42-3.43-8.16-5.55-13.4-5.55,5.23,0,9.97-2.12,13.4-5.55,3.43-3.43,5.55-8.17,5.55-13.4,0,10.46,8.48,18.95,18.95,18.95Z" class="h"/><circle cx="67.44" cy="69.69" r="35.98" class="d"/><circle cx="67.44" cy="69.69" r="27.01" class="f"/><circle cx="67.44" cy="69.69" r="14.9" class="g"/><path d="M113.4,54.78c-5.23,0-9.97,2.12-13.4,5.55-3.43,3.43-5.55,8.17-5.55,13.4,0-5.23-2.12-9.97-5.55-13.4-3.42-3.43-8.16-5.55-13.4-5.55,5.23,0,9.97-2.12,13.4-5.55,3.43-3.43,5.55-8.17,5.55-13.4,0,10.46,8.48,18.95,18.95,18.95Z" class="i"/><path d="M77.76,70.09c-2.85,0-5.43,1.16-7.3,3.02-1.87,1.87-3.02,4.45-3.02,7.3,0-2.85-1.16-5.43-3.02-7.3-1.86-1.87-4.45-3.02-7.3-3.02,2.85,0,5.43-1.16,7.3-3.02,1.87-1.87,3.02-4.45,3.02-7.3,0,5.7,4.62,10.32,10.32,10.32Z" class="i"/></g></g></svg>