<svg xmlns="http://www.w3.org/2000/svg" viewBox="0 0 134.89 134.89"><defs><style>.d{fill:none;stroke-width:.42px}.d,.e{stroke:#1d1d1b}.d,.e,.f{stroke-miterlimit:10}.e,.g{fill:#eddfd6}.f,.h,.i,.j{fill:#1d1d1b}.e,.f,.i{stroke-width:.42px}.i{stroke-linecap:round;stroke-linejoin:round}.f,.i{stroke:#eddfd6}.j{font-family:Helvetica,Helvetica;font-size:11.07px}</style></defs><g id="b"><g id="c"><g><g><rect width="134.46" height="134.46" x=".21" y=".21" class="h"/><path d="M134.46,.42V134.46H.42V.42H134.46m.42-.42H0V134.89H134.89V0h0Z" class="g"/></g><g><rect width="55.18" height="87.21" x="39" y="24.84" class="e"/><rect width="52.11" height="85.44" x="40.42" y="26.6" class="e"/><rect width="43.05" height="80.33" x="44.95" y="31.71" class="e"/><ellipse cx="80.6" cy="73.27" class="f" rx="1.17" ry="1.72"/><polygon points="44.95 31.71 78.43 37.83 78.43 112.05 88 112.05 88 31.71 44.95 31.71" class="h"/><polygon points="44.95 112.05 85.17 103.52 85.17 112.05 44.95 112.05" class="h"/><circle cx="74.86" cy="72.3" r="1.91" class="d"/><rect width="5.87" height="24.69" x="73.76" y="73.72" class="h" rx="2.63" ry="2.63" transform="translate(53.43 -26.84) rotate(30.06)"/><rect width="5.87" height="18.05" x="62.9" y="85.25" class="h" rx="2.63" ry="2.63" transform="translate(-28.44 160.12) rotate(-90)"/><path d="M56.81,91.34h4.29v6.08c0,2.12-1.72,3.84-3.84,3.84h-.44v-9.92h0Z" class="h"/><line x1="61.35" x2="61.35" y1="94.73" y2="98.8" class="i"/></g><rect width="21.13" height="21.13" x=".18" y=".42" class="g"/><text class="j" transform="translate(4.88 15.21)"><tspan x="0" y="0">06</tspan></text></g></g></g></svg>